<svg width="61" height="42" viewBox="0 0 61 42" fill="none" xmlns="http://www.w3.org/2000/svg">
<path d="M9.59242 23.3127H4.231V5.32254H0.140206V0.658418H13.6522V5.32254H9.59242V23.3127ZM16.0695 23.3127V0.658418H21.4619V23.3127H16.0695ZM42.2878 23.3127H35.9966L30.0929 9.22739H29.9689C30.0309 10.0538 30.0774 10.8234 30.1084 11.5362C30.1497 12.2387 30.1755 12.8792 30.1859 13.4576C30.2065 14.0258 30.2168 14.5268 30.2168 14.9607V23.3127H25.2118V0.658418H31.4565L37.3293 14.3564H37.4532C37.4119 13.5919 37.3757 12.8792 37.3447 12.218C37.3138 11.5569 37.2879 10.9474 37.2673 10.3896C37.2466 9.83172 37.2363 9.32553 37.2363 8.871V0.658418H42.2878V23.3127ZM52.5458 8.90199L55.304 0.658418H60.8513L55.211 14.6198V23.3127H49.8186V14.8058L44.1627 0.658418H49.7721L52.5458 8.90199ZM8.03083 41.3127L5.86147 32.8505H5.7926C5.82129 33.2293 5.84425 33.5966 5.86147 33.9524C5.88442 34.3025 5.90164 34.6354 5.91312 34.951C5.9246 35.2667 5.93033 35.5651 5.93033 35.8463V41.3127H3.13255V28.727H7.23884L9.19298 36.2853H9.24464L11.2074 28.727H15.2792V41.3127H12.404V35.7946C12.404 35.479 12.4097 35.1662 12.4212 34.8563C12.4327 34.5407 12.447 34.2164 12.4642 33.8835C12.4815 33.5507 12.5015 33.2063 12.5245 32.8505H12.4556L10.2518 41.3127H8.03083ZM26.5909 35.0027C26.5909 36.0586 26.4876 36.9912 26.281 37.8004C26.0801 38.6039 25.776 39.2811 25.3685 39.8321C24.9668 40.3773 24.4675 40.7905 23.8706 41.0717C23.2795 41.3472 22.5937 41.4849 21.8132 41.4849C21.0384 41.4849 20.3526 41.3443 19.7557 41.0631C19.1588 40.7819 18.6567 40.3687 18.2492 39.8235C17.8417 39.2725 17.5347 38.5924 17.3281 37.7832C17.1215 36.974 17.0182 36.0414 17.0182 34.9854C17.0182 33.5851 17.199 32.4057 17.5605 31.4473C17.9278 30.4889 18.4673 29.7629 19.1789 29.2693C19.8963 28.7758 20.7744 28.529 21.8132 28.529C22.8577 28.529 23.7329 28.7729 24.4388 29.2607C25.1504 29.7486 25.687 30.4745 26.0486 31.4387C26.4101 32.3971 26.5909 33.5851 26.5909 35.0027ZM20.1345 35.0027C20.1345 35.8578 20.1976 36.5723 20.3239 37.1462C20.4501 37.7201 20.6366 38.1505 20.8834 38.4375C21.1359 38.7187 21.4459 38.8593 21.8132 38.8593C22.1919 38.8593 22.5018 38.7216 22.7429 38.4461C22.9897 38.1706 23.1704 37.7488 23.2852 37.1806C23.4057 36.6067 23.466 35.8807 23.466 35.0027C23.466 33.6712 23.3283 32.6898 23.0528 32.0585C22.7831 31.4215 22.3698 31.103 21.8132 31.103C21.4459 31.103 21.1359 31.2493 20.8834 31.542C20.6366 31.829 20.4501 32.2623 20.3239 32.8419C20.1976 33.4158 20.1345 34.1361 20.1345 35.0027ZM37.1536 28.727L33.9426 41.3127H30.4562L27.2796 28.727H30.4217L31.6872 34.9338C31.7446 35.2093 31.8077 35.5479 31.8766 35.9496C31.9512 36.3513 32.0172 36.7502 32.0746 37.1462C32.132 37.5422 32.1721 37.8664 32.1951 38.119C32.2295 37.8664 32.2754 37.5451 32.3328 37.1548C32.396 36.7588 32.462 36.3628 32.5308 35.9668C32.6054 35.5651 32.6714 35.2265 32.7288 34.951L34.0115 28.727H37.1536ZM38.2039 41.3127V28.727H41.1997V41.3127H38.2039ZM49.3434 41.3127H43.2829V28.727H49.3434V31.2665H46.2787V33.5392H49.1196V36.0787H46.2787V38.7388H49.3434V41.3127ZM57.995 41.3127H50.4281V39.2123L54.6377 31.2665H50.5141V28.727H57.8831V30.8189L53.6907 38.7388H57.995V41.3127Z" fill="#F9F9F9"/>
</svg>
