<svg width="85" height="15" viewBox="0 0 85 15" fill="none" xmlns="http://www.w3.org/2000/svg">
<path d="M7.3444 1.44312C7.875 1.44312 8.68711 3.68327 9.05821 4.79741C9.17964 5.16198 9.51665 5.41483 9.90056 5.43114C11.0625 5.48051 13.3877 5.64992 13.3877 6.21512C13.3877 6.76921 11.749 8.09896 10.8817 8.76392C10.5726 9.0009 10.4447 9.40797 10.5612 9.77962C10.9089 10.8886 11.5369 13.1237 11.0801 13.4987C10.6334 13.8654 8.83877 12.5569 7.90238 11.8238C7.56542 11.5599 7.08876 11.5596 6.75176 11.8234C5.81518 12.5565 4.02369 13.8655 3.60868 13.4987C3.18331 13.1228 3.78012 10.8775 4.1074 9.77143C4.21622 9.40364 4.08698 9.00467 3.78251 8.77141C2.91785 8.10899 1.26678 6.7713 1.26678 6.21512C1.26678 5.64901 3.59937 5.47997 4.75944 5.43091C5.14079 5.41478 5.47586 5.16549 5.5992 4.80428C5.97886 3.69252 6.8127 1.44312 7.3444 1.44312Z" fill="#00B9AE" stroke="#00B9AE" stroke-width="1.76304" stroke-linecap="round" stroke-linejoin="round"/>
<path d="M24.9747 1.44312C25.5053 1.44312 26.3175 3.68327 26.6885 4.79741C26.81 5.16198 27.147 5.41483 27.5309 5.43114C28.6929 5.48051 31.018 5.64992 31.018 6.21512C31.018 6.76921 29.3793 8.09896 28.5121 8.76392C28.203 9.0009 28.075 9.40797 28.1916 9.77962C28.5393 10.8886 29.1673 13.1237 28.7105 13.4987C28.2638 13.8654 26.4691 12.5569 25.5327 11.8238C25.1958 11.5599 24.7191 11.5596 24.3821 11.8234C23.4455 12.5565 21.654 13.8655 21.239 13.4987C20.8137 13.1228 21.4105 10.8775 21.7377 9.77143C21.8466 9.40364 21.7173 9.00467 21.4128 8.77141C20.5482 8.10899 18.8971 6.7713 18.8971 6.21512C18.8971 5.64901 21.2297 5.47997 22.3898 5.43091C22.7711 5.41478 23.1062 5.16549 23.2295 4.80428C23.6092 3.69252 24.443 1.44312 24.9747 1.44312Z" fill="#00B9AE" stroke="#00B9AE" stroke-width="1.76304" stroke-linecap="round" stroke-linejoin="round"/>
<path d="M42.6051 1.44312C43.1357 1.44312 43.9478 3.68327 44.3189 4.79741C44.4403 5.16198 44.7774 5.41483 45.1613 5.43114C46.3232 5.48051 48.6484 5.64992 48.6484 6.21512C48.6484 6.76921 47.0097 8.09896 46.1424 8.76392C45.8333 9.0009 45.7054 9.40797 45.8219 9.77962C46.1696 10.8886 46.7976 13.1237 46.3408 13.4987C45.8941 13.8654 44.0995 12.5569 43.1631 11.8238C42.8261 11.5599 42.3495 11.5596 42.0125 11.8234C41.0759 12.5565 39.2844 13.8655 38.8694 13.4987C38.444 13.1228 39.0408 10.8775 39.3681 9.77143C39.4769 9.40364 39.3477 9.00467 39.0432 8.77141C38.1786 8.10899 36.5275 6.7713 36.5275 6.21512C36.5275 5.64901 38.8601 5.47997 40.0202 5.43091C40.4015 5.41478 40.7366 5.16549 40.8599 4.80428C41.2396 3.69252 42.0734 1.44312 42.6051 1.44312Z" fill="#00B9AE" stroke="#00B9AE" stroke-width="1.76304" stroke-linecap="round" stroke-linejoin="round"/>
<path d="M60.2355 1.44312C60.7661 1.44312 61.5782 3.68327 61.9493 4.79741C62.0707 5.16198 62.4077 5.41483 62.7916 5.43114C63.9536 5.48051 66.2787 5.64992 66.2787 6.21512C66.2787 6.76921 64.6401 8.09896 63.7728 8.76392C63.4637 9.0009 63.3358 9.40797 63.4523 9.77962C63.8 10.8886 64.428 13.1237 63.9712 13.4987C63.5245 13.8654 61.7299 12.5569 60.7935 11.8238C60.4565 11.5599 59.9798 11.5596 59.6428 11.8234C58.7063 12.5565 56.9148 13.8655 56.4998 13.4987C56.0744 13.1228 56.6712 10.8775 56.9985 9.77143C57.1073 9.40364 56.9781 9.00467 56.6736 8.77141C55.8089 8.10899 54.1579 6.7713 54.1579 6.21512C54.1579 5.64901 56.4905 5.47997 57.6505 5.43091C58.0319 5.41478 58.3669 5.16549 58.4903 4.80428C58.8699 3.69252 59.7038 1.44312 60.2355 1.44312Z" fill="#00B9AE" stroke="#00B9AE" stroke-width="1.76304" stroke-linecap="round" stroke-linejoin="round"/>
<path d="M77.2971 2.00676C77.5361 1.60754 77.8881 1.80204 77.914 2.26659C78.0419 4.5675 78.3481 10.9248 77.8515 11.3578C77.8492 11.3598 77.8496 11.3594 77.8473 11.3613C77.7733 11.4232 74.6917 13.995 74.1301 13.4987C73.7047 13.1228 74.3015 10.8775 74.6288 9.77143C74.7376 9.40364 74.6084 9.00466 74.3039 8.77141C73.4393 8.10899 71.7882 6.7713 71.7882 6.21512C71.7882 5.64901 74.1208 5.47997 75.2809 5.43091C75.6622 5.41478 75.9973 5.16549 76.1206 4.80428C76.3807 4.0427 76.8539 2.74727 77.2971 2.00676Z" fill="#00B9AE"/>
<path d="M74.1301 13.4987L73.5463 14.1592L74.1301 13.4987ZM74.3039 8.77141L73.7678 9.47118L74.3039 8.77141ZM77.8515 11.3578L78.4308 12.0222L77.8515 11.3578ZM77.8473 11.3613L77.2817 10.6852L77.8473 11.3613ZM77.914 2.26659L78.7941 2.21764L77.914 2.26659ZM77.2971 2.00676L78.0535 2.45948L77.2971 2.00676ZM77.0338 2.31554C77.0976 3.46296 77.2054 5.61345 77.2355 7.52655C77.2507 8.48573 77.246 9.36773 77.2087 10.0285C77.1898 10.3618 77.1639 10.6144 77.134 10.7835C77.1188 10.8694 77.1068 10.9089 77.1041 10.9164C77.0909 10.9539 77.1246 10.822 77.2722 10.6933L78.4308 12.0222C78.6405 11.8394 78.73 11.6071 78.7668 11.5027C78.8142 11.3684 78.8463 11.2247 78.87 11.0908C78.9179 10.8204 78.9486 10.4874 78.9689 10.1279C79.0098 9.40293 79.0137 8.47062 78.9984 7.49874C78.9676 5.54973 78.8583 3.37113 78.7941 2.21764L77.0338 2.31554ZM77.2817 10.6852C77.2497 10.712 76.4855 11.3495 75.6696 11.9147C75.2564 12.2009 74.8649 12.4438 74.5645 12.5841C74.4099 12.6562 74.3268 12.6784 74.3036 12.6823C74.2486 12.6914 74.4806 12.6321 74.7139 12.8382L73.5463 14.1592C73.9199 14.4894 74.3712 14.4583 74.5925 14.4215C74.8455 14.3795 75.0959 14.2817 75.3103 14.1816C75.7479 13.9773 76.2368 13.6664 76.6734 13.364C77.5572 12.7519 78.3709 12.0726 78.4129 12.0375L77.2817 10.6852ZM74.7139 12.8382C74.7881 12.9038 74.8286 12.9697 74.8485 13.0089C74.8587 13.0291 74.8649 13.045 74.8684 13.0549C74.8719 13.0649 74.8733 13.0707 74.8734 13.0714C74.8735 13.0718 74.8707 13.0595 74.8681 13.0309C74.8656 13.0029 74.8638 12.9654 74.8641 12.9172C74.865 12.7134 74.8993 12.4222 74.9643 12.0679C75.0926 11.3681 75.313 10.566 75.4741 10.0215L73.7835 9.52133C73.6173 10.083 73.3757 10.9565 73.2302 11.7499C73.1582 12.1422 73.1026 12.5519 73.101 12.9094C73.1003 13.0871 73.1123 13.2869 73.1585 13.4806C73.2015 13.6605 73.2983 13.94 73.5463 14.1592L74.7139 12.8382ZM74.84 8.07164C74.415 7.74601 73.8129 7.26656 73.3237 6.80937C73.077 6.57879 72.8806 6.37384 72.7526 6.21105C72.6884 6.12945 72.6568 6.0778 72.6448 6.05442C72.6266 6.01896 72.6697 6.08328 72.6697 6.21512H70.9067C70.9067 6.48601 71.0014 6.7138 71.0769 6.86053C71.1585 7.01935 71.2627 7.16863 71.3668 7.301C71.5754 7.56615 71.8458 7.84132 72.1199 8.09748C72.6724 8.61378 73.3282 9.13438 73.7678 9.47118L74.84 8.07164ZM72.6697 6.21512C72.6697 6.48028 72.5248 6.63654 72.4774 6.67883C72.4364 6.71536 72.4278 6.70776 72.5026 6.67733C72.6467 6.61881 72.8967 6.55556 73.2419 6.49907C73.9161 6.38873 74.7464 6.33582 75.3181 6.31164L75.2436 4.55018C74.6553 4.57506 73.7392 4.6312 72.9571 4.75917C72.5742 4.82184 72.1685 4.91007 71.839 5.04399C71.677 5.10978 71.4771 5.20865 71.304 5.36298C71.1245 5.52305 70.9067 5.80843 70.9067 6.21512H72.6697ZM76.9548 5.08916C77.2191 4.31519 77.6655 3.10768 78.0535 2.45948L76.5407 1.55405C76.0423 2.38685 75.5423 3.7702 75.2864 4.51941L76.9548 5.08916ZM75.4741 10.0215C75.6862 9.30476 75.4353 8.52765 74.84 8.07164L73.7678 9.47118C73.7743 9.47609 73.7797 9.48322 73.7829 9.49313C73.7861 9.50311 73.7861 9.51269 73.7835 9.52133L75.4741 10.0215ZM77.2722 10.6933C77.2724 10.6931 77.2742 10.6916 77.2767 10.6895C77.2798 10.6868 77.283 10.6841 77.2862 10.6815C77.2874 10.6805 77.2883 10.6797 77.2884 10.6796C77.2887 10.6793 77.2879 10.68 77.2874 10.6804C77.2858 10.6818 77.2839 10.6833 77.2817 10.6852L78.4129 12.0375C78.4118 12.0384 78.4108 12.0392 78.4098 12.04C78.4096 12.0402 78.4091 12.0406 78.4097 12.0401C78.4101 12.0398 78.4112 12.0389 78.4127 12.0377C78.4163 12.0346 78.42 12.0315 78.4238 12.0283C78.4269 12.0256 78.4294 12.0234 78.4308 12.0222L77.2722 10.6933ZM75.3181 6.31164C76.0606 6.28023 76.7134 5.79608 76.9548 5.08916L75.2864 4.51941C75.284 4.52651 75.2791 4.5339 75.2706 4.54028C75.262 4.54672 75.2526 4.54979 75.2436 4.55018L75.3181 6.31164ZM78.7941 2.21764C78.7726 1.82992 78.6007 1.2683 78.0597 1.01463C77.7616 0.874843 77.4234 0.875034 77.124 1.01195C76.8467 1.13879 76.6605 1.35388 76.5407 1.55405L78.0535 2.45948C78.0532 2.46004 78.0006 2.54972 77.8573 2.61526C77.692 2.69089 77.4882 2.69388 77.3112 2.61089C77.1551 2.53769 77.0838 2.42953 77.0589 2.38187C77.0319 2.33018 77.0331 2.30312 77.0338 2.31554L78.7941 2.21764Z" fill="#00B9AE"/>
</svg>
